<svg width="30" height="20" viewBox="0 0 30 20" fill="none" xmlns="http://www.w3.org/2000/svg">
<path d="M10.8917 0.972471C10.7426 0.822142 10.5651 0.702823 10.3696 0.621397C10.1741 0.53997 9.96441 0.498047 9.75261 0.498047C9.54082 0.498047 9.33111 0.53997 9.1356 0.621397C8.94009 0.702823 8.76264 0.822142 8.61349 0.972471L0.591521 8.99186C0.441143 9.14096 0.321785 9.31836 0.240332 9.5138C0.158879 9.70925 0.116943 9.91889 0.116943 10.1306C0.116943 10.3423 0.158879 10.552 0.240332 10.7474C0.321785 10.9429 0.441143 11.1203 0.591521 11.2694L8.61349 19.2888C8.76264 19.4391 8.94009 19.5584 9.1356 19.6398C9.33111 19.7213 9.54082 19.7632 9.75261 19.7632C9.96441 19.7632 10.1741 19.7213 10.3696 19.6398C10.5651 19.5584 10.7426 19.4391 10.8917 19.2888C11.0421 19.1397 11.1615 18.9623 11.2429 18.7668C11.3244 18.5714 11.3663 18.3617 11.3663 18.15C11.3663 17.9383 11.3244 17.7286 11.2429 17.5332C11.1615 17.3377 11.0421 17.1604 10.8917 17.0113L3.99284 10.1306L10.8917 3.24998C11.0421 3.10088 11.1615 2.92349 11.2429 2.72804C11.3244 2.53259 11.3663 2.32296 11.3663 2.11123C11.3663 1.89949 11.3244 1.68986 11.2429 1.49441C11.1615 1.29896 11.0421 1.12157 10.8917 0.972471ZM28.5401 8.99186L20.5181 0.972471C20.3685 0.822928 20.1909 0.704304 19.9955 0.623372C19.8 0.54244 19.5905 0.500784 19.379 0.500784C18.9517 0.500784 18.542 0.670455 18.2399 0.972471C18.0903 1.12201 17.9716 1.29955 17.8907 1.49494C17.8097 1.69032 17.768 1.89974 17.768 2.11123C17.768 2.53834 17.9377 2.94796 18.2399 3.24998L25.1388 10.1306L18.2399 17.0113C18.0895 17.1604 17.9701 17.3377 17.8887 17.5332C17.8072 17.7286 17.7653 17.9383 17.7653 18.15C17.7653 18.3617 17.8072 18.5714 17.8887 18.7668C17.9701 18.9623 18.0895 19.1397 18.2399 19.2888C18.389 19.4391 18.5665 19.5584 18.762 19.6398C18.9575 19.7213 19.1672 19.7632 19.379 19.7632C19.5908 19.7632 19.8005 19.7213 19.996 19.6398C20.1915 19.5584 20.369 19.4391 20.5181 19.2888L28.5401 11.2694C28.6905 11.1203 28.8098 10.9429 28.8913 10.7474C28.9727 10.552 29.0147 10.3423 29.0147 10.1306C29.0147 9.91889 28.9727 9.70925 28.8913 9.5138C28.8098 9.31836 28.6905 9.14096 28.5401 8.99186Z" fill="#23262F"/>
</svg>
